<svg xmlns="http://www.w3.org/2000/svg" viewBox="0 0 512 512" role="img" aria-labelledby="title desc">
  <title id="title">eggroll-trainer icon</title>
  <desc id="desc">Low-rank matrices wrapping into an eggroll-like training loop.</desc>
  <defs>
    <linearGradient id="bg" x1="76" x2="436" y1="72" y2="440" gradientUnits="userSpaceOnUse">
      <stop stop-color="#FFF8E8"/>
      <stop offset="0.52" stop-color="#F4C76D"/>
      <stop offset="1" stop-color="#D66A2D"/>
    </linearGradient>
    <linearGradient id="rank" x1="118" x2="394" y1="145" y2="365" gradientUnits="userSpaceOnUse">
      <stop stop-color="#2E7D78"/>
      <stop offset="1" stop-color="#163B64"/>
    </linearGradient>
  </defs>
  <rect width="512" height="512" rx="116" fill="#111318"/>
  <circle cx="256" cy="256" r="180" fill="url(#bg)"/>
  <path fill="#111318" fill-opacity=".14" d="M102 288c75 60 207 96 316 23-17 77-83 125-162 125-72 0-133-43-154-148Z"/>
  <path fill="none" stroke="#FFF9EA" stroke-linecap="round" stroke-width="28" d="M126 221c66-45 158-62 260-18M126 291c80 45 177 50 260 0"/>
  <path fill="none" stroke="url(#rank)" stroke-linecap="round" stroke-width="34" d="M158 172c67 40 124 91 196 168"/>
  <path fill="none" stroke="#101419" stroke-linecap="round" stroke-opacity=".78" stroke-width="18" d="M170 340c67-44 127-95 174-168"/>
  <g fill="#101419">
    <rect x="143" y="118" width="40" height="118" rx="12" transform="rotate(-18 163 177)"/>
    <rect x="202" y="96" width="40" height="168" rx="12" transform="rotate(-18 222 180)"/>
    <rect x="291" y="248" width="40" height="168" rx="12" transform="rotate(42 311 332)"/>
    <rect x="349" y="276" width="40" height="118" rx="12" transform="rotate(42 369 335)"/>
  </g>
  <circle cx="256" cy="256" r="182" fill="none" stroke="#FFF9EA" stroke-opacity=".55" stroke-width="10"/>
</svg>
